<?xml version="1.0" encoding="UTF-8" standalone="no"?><!DOCTYPE svg PUBLIC "-//W3C//DTD SVG 1.1//EN" "http://www.w3.org/Graphics/SVG/1.1/DTD/svg11.dtd"><svg width="100%" height="100%" viewBox="0 0 605 594" version="1.1" xmlns="http://www.w3.org/2000/svg" xmlns:xlink="http://www.w3.org/1999/xlink" xml:space="preserve" style="fill-rule:evenodd;clip-rule:evenodd;stroke-linejoin:round;stroke-miterlimit:1.41421;"><rect id="Artboard1" x="0" y="0" width="604.104" height="593.62" style="fill:none;"/><g><path d="M572.1,382.011c10.269,-14.29 17.21,-30.278 20.123,-46.724l11.881,-3.276l-0.362,-87.591c-0.212,-42.108 -24.078,-71.691 -65.703,-82.11c3.115,-13.586 3.903,-27.429 2.11,-40.882c-3.576,-26.821 -17.033,-50.05 -37.881,-65.41c-15.652,-11.527 -35.966,-17.62 -58.765,-17.62c-15.215,0 -31.063,2.69 -46.498,7.853c-23.877,-28.812 -58.584,-46.251 -93.368,-46.251c-19.612,0 -38.475,5.498 -54.547,15.914c-20.061,13 -34.349,34.234 -40.456,58.473c-19.225,-13.11 -41.556,-20.258 -64.582,-20.258c-53.963,0 -99.873,38.504 -116.302,91.837l-1.243,0.271l-0.22,0.047l-0.218,0.049l-26.069,6.385l0.89,204.602c0,0 29.668,-7.203 38.76,-9.399l0.563,127.125l11.1,-2.158c16.502,36.28 55.296,60.524 99.556,60.524c6.236,0 12.484,-0.477 18.692,-1.423c22.549,37.706 61.042,61.419 101.219,61.419c14.466,0 28.409,-3.059 41.427,-9.093c8.905,-4.125 17.105,-9.634 24.362,-16.285l6.168,25.424l89.768,0.166c0,0 -14.739,-41.529 -16.792,-47.37c14.733,5.879 30.12,8.956 45.469,8.956c22.99,0 44.293,-7.096 61.615,-20.523c23.662,-18.341 36.873,-46.477 38.553,-77.485l11.05,-3.353l-0.3,-71.834Z" style="fill:#fff;fill-rule:nonzero;"/><path d="M576.518,311.419c-3.619,-45.769 -39.696,-77.737 -87.736,-77.737c-5.468,0 -11.026,0.414 -16.513,1.233c9.267,-9.415 18.146,-19.489 26.759,-30.346c19.054,-24.016 27.897,-53.502 24.244,-80.895c-2.957,-22.196 -14.004,-41.354 -31.102,-53.948c-12.698,-9.356 -29.53,-14.306 -48.67,-14.306c-17.118,0 -35.398,3.971 -52.433,11.304c-20.556,-30.7 -53.9,-49.695 -87.427,-49.701c-16.323,0 -31.98,4.556 -45.289,13.179c-24.351,15.781 -38.352,46.64 -35.667,78.619c0.051,0.585 0.103,1.169 0.158,1.76c-19.758,-24.647 -48.303,-39.43 -78.788,-39.43c-58.318,0 -105.761,52.949 -105.761,118.035c0,26.116 7.536,50.876 21.798,71.656l0.113,0.217l0.222,0.398l0.256,0.384c12.353,18.608 27.833,42.469 37.952,61.928c11.414,21.943 11.323,29.468 11.084,31.114l-0.113,0.107c-37.688,20.748 -57.062,61.076 -47.194,98.627c9.718,36.958 46.086,62.77 88.463,62.77c9.188,0 18.43,-1.203 27.466,-3.584l0.233,-0.053c18.33,38.743 54.275,63.636 92.206,63.636c11.981,0 23.513,-2.531 34.271,-7.517c17.293,-8.012 31.393,-22.678 39.502,-40.14l11.586,47.727l52.24,0.091c0,0 -14.467,-40.803 -24.479,-70.177c22.364,20.22 49.983,31.808 77.28,31.808c19.183,0 36.881,-5.857 51.19,-16.952c33.811,-26.206 41.972,-76.839 19.931,-123.305c29.645,-21.247 46.772,-54.224 44.218,-86.502" style="fill:#e9db6b;fill-rule:nonzero;"/></g><clipPath id="_clip1"><path d="M264.525,39.726c-21.014,13.618 -32.817,40.876 -30.525,68.15c3.484,41.501 24.917,106.302 25.441,112.485c-4.641,-15.584 -13.978,-46.99 -29.64,-75.615c-14.929,-36.699 -47.659,-62.242 -85.749,-62.242c-52.139,0 -94.411,47.76 -94.411,106.685c0,24.876 7.598,47.707 20.231,65.849l0.263,0.524c33.623,50.648 60.415,95.627 47.803,107.191c-0.435,0.378 -0.982,0.898 -1.556,1.477c-33.197,17.615 -51.861,52.769 -42.998,86.497c10.585,40.261 56.278,63.14 102.071,51.099c3.291,-0.861 6.47,-1.93 9.58,-3.094c0.909,2.51 1.839,4.855 2.846,7.104c16.158,35.967 48.694,59.197 82.897,59.197c10.324,0 20.244,-2.166 29.498,-6.458c21.702,-10.063 37.132,-32.551 39.957,-55.21c2.821,-22.668 -0.447,-42.411 -0.447,-42.411l25.278,104.168l27.23,0.043c0,0 -32.548,-91.714 -43.584,-130.996c0.718,1.477 18.528,35.73 27.294,47.029c35.133,45.325 93.067,59.229 129.409,31.058c30.433,-23.587 35.972,-69.161 16.392,-109.974l-0.533,-1.26c-0.397,-0.841 -0.914,-1.718 -1.346,-2.573c-0.434,-0.826 -0.852,-1.657 -1.305,-2.482c-0.368,-0.67 -0.654,-1.314 -1.043,-1.997c33.637,-19.813 49.868,-53.289 47.627,-81.659c-3.027,-38.267 -32.401,-67.284 -76.423,-67.284c-4.988,0 -10.063,0.387 -15.079,1.147c-13.443,2.025 -26.514,4.535 -39.108,7.486c20.416,-16.339 38.449,-34.617 55.544,-56.141c17.153,-21.622 25.131,-47.988 21.882,-72.347c-2.55,-19.111 -11.988,-35.559 -26.582,-46.309c-10.736,-7.907 -25.238,-12.09 -41.933,-12.09c-18.582,0 -38.998,5.275 -56.876,14.61c-1.337,-2.514 -2.699,-4.82 -4.096,-6.985c-18.392,-28.386 -48.627,-46.022 -78.905,-46.029c-14.116,0 -27.642,3.926 -39.104,11.357"/></clipPath><g clip-path="url(#_clip1)"><rect x="49.641" y="28.369" width="517.806" height="536.795" style="fill:url(#_Radial2);"/></g><path d="M403.642,313.871c-7.284,-2.86 -15.803,-4.897 -25.126,-5.476c-1.209,-0.075 -2.372,-0.107 -3.536,-0.107c-13.382,0 -25.426,4.694 -33.91,13.21c-0.687,0.692 -1.346,1.394 -1.973,2.128c-8.013,-9.325 -22.016,-16.992 -46.405,-16.992l-1.289,0.005c-16.792,0.223 -31.178,3.118 -43.986,8.852l-10.113,4.53l0,0.126c-8.145,-6.048 -18.402,-9.361 -30.263,-9.361l-0.02,0c-2.096,0 -4.191,0.088 -6.222,0.276c-13.452,1.249 -25.131,6.152 -34.313,13.865c-2.877,-6.522 -7.189,-11.994 -12.718,-16.208c3.332,-0.453 35.918,-4.318 35.918,-4.318c13.66,-1.43 58.161,-4.694 58.161,-4.694c5.938,1.025 12.282,1.583 18.688,1.583c1.169,0 2.345,-0.016 3.508,-0.058c25.339,-0.793 44.917,-11.304 54.586,-27.919c7.595,16.978 23.904,27.489 46.167,28.715c1.64,0.092 3.23,0.134 4.768,0.134c6.327,0 11.884,-0.723 16.583,-2.159l11.707,1.968c-0.462,1.829 -0.738,4.046 -0.738,6.448c0,1.989 0.201,3.828 0.526,5.452m119.142,7.555c11.65,2.262 22.335,3.417 31.723,3.417c7.666,0 14.379,-0.785 19.965,-2.324l12.559,-3.455l-0.054,-13.025l-0.153,-35.177l-0.107,-26.374c-0.182,-35.871 -20.895,-59.638 -58.331,-66.94c-7.061,-1.375 -14.534,-2.067 -22.217,-2.067c-5.179,0 -10.297,0.314 -15.21,0.925l0.742,-2.853l-16.917,-4.042c-4.249,-1.016 -11.366,-2.478 -17.438,-3.263c-7.688,-1 -15.073,-1.504 -21.928,-1.504c-11.068,0 -20.812,1.316 -29.045,3.927l-0.018,-5.875l-15.377,-1.105l-0.187,-35.617l-71.381,14.848l0.067,17.785l0.064,6.991l-0.099,-0.04c-7.661,-4.107 -21.874,-8.62 -35.017,-9.232c-10.648,-0.488 -20.244,0.665 -26.855,2.871l-79.484,6.514l-0.132,-29.35c0,0 -60.653,8.217 -147.831,26.41c-7.939,1.658 -13.042,3.189 -13.042,3.189l0.739,169.624c0,0 32.806,-7.959 38.76,-9.31l0.568,128.037l64.109,-12.468l-0.182,-38.556c9.688,-2.563 18.125,-6.343 25.163,-11.171c5.845,25.153 25.702,41.162 52.982,41.162c2.253,0 4.557,-0.104 7.054,-0.324c11.496,-1.019 22.353,-3.434 31.483,-6.959l0.008,2.568l114.69,-1.298c0,0 11.497,2.606 18.909,3.029c1.595,0.086 3.115,0.14 4.589,0.14c5.348,0 10.388,-0.563 15.057,-1.665l0.159,36.149l16.338,0.59c0.968,0.037 1.925,0.053 2.871,0.053c17.1,0 31.485,-5.375 41.604,-15.545c4.131,-4.142 8.701,-10.299 11.897,-19.083c8.114,6.229 19.735,11.309 36.159,14.126c8.535,1.477 16.508,2.233 23.676,2.233c7.519,0 14.068,-0.833 19.475,-2.476l12.127,-3.681l-0.255,-61.942c-0.15,-30.174 -18.346,-50.622 -49.913,-56.114c-5.348,-0.92 -10.916,-1.381 -16.578,-1.381c-7.122,0 -14.397,0.743 -20.919,2.123l-4.681,1.381c0,0 2.514,-3.351 3.541,-6.308c1.027,-2.959 1.555,-6.104 1.542,-9.328c-0.027,-5.654 -1.695,-11.061 -4.579,-15.781l-0.051,-11.692c6.458,16.322 22.74,32.207 59.361,39.233" style="fill:#62822c;fill-rule:nonzero;"/><path d="M373.876,146.688c0.053,10.315 0.096,20.64 0.153,30.96c5.117,0.297 10.242,0.632 15.354,1c0.03,7.969 0.059,15.929 0.086,23.899c-5.109,-0.364 -10.224,-0.699 -15.333,-0.995c0.075,16.583 0.142,33.17 0.214,49.753c0.03,5.885 3.185,8.99 8.291,9.325l1.167,0.039c2.125,0 4.093,-0.374 5.916,-0.909c0.04,7.645 0.069,15.284 0.107,22.921c-3.099,1.561 -8.125,2.459 -14.264,2.459c-1.238,0 -2.514,-0.036 -3.833,-0.11c-22.831,-1.26 -34.725,-14.117 -34.843,-35.309c-0.062,-16.576 -0.137,-33.159 -0.199,-49.748c-3.683,-0.101 -7.366,-0.181 -11.049,-0.249c-0.038,-7.961 -0.075,-15.929 -0.108,-23.89c3.681,0.06 7.361,0.14 11.034,0.24c-0.032,-7.187 -0.059,-14.371 -0.08,-21.549c12.467,-2.816 24.935,-5.427 37.387,-7.837m-212.859,9.113c0.116,25.655 0.228,51.307 0.335,76.959l0.403,-0.052c8.551,-17.014 17.116,-33.936 25.692,-50.759c13.036,-1.367 26.088,-2.514 39.151,-3.425c-10.761,17.143 -21.515,34.437 -32.252,51.892c11.879,17.625 23.767,35.429 35.675,53.428c-14.058,0.95 -28.097,2.158 -42.103,3.62c-8.724,-15.865 -17.433,-31.635 -26.135,-47.299l-0.395,0.05c0.071,16.763 0.145,33.527 0.22,50.292c-12.361,1.577 -24.697,3.354 -37.011,5.341c-0.201,-44.899 -0.393,-89.794 -0.591,-134.691c12.32,-1.985 24.65,-3.772 37.011,-5.356m-55.603,8.551c0.034,8.616 0.074,17.23 0.113,25.845c-11.054,1.975 -22.086,4.102 -33.091,6.401c0.041,9.33 0.08,18.655 0.122,27.971c9.448,-1.963 18.924,-3.813 28.413,-5.537c0.04,8.411 0.079,16.824 0.121,25.24c-9.49,1.732 -18.963,3.588 -28.417,5.561c0.047,9.911 0.079,19.82 0.126,29.732c11.002,-2.287 22.039,-4.414 33.097,-6.377c0.032,8.603 0.066,17.206 0.107,25.809c-23.863,4.251 -47.626,9.256 -71.249,15.027c-0.193,-44.877 -0.387,-89.749 -0.585,-134.616c23.623,-5.783 47.387,-10.799 71.243,-15.056m173.542,9.365c13.058,0 23.075,2.357 32.45,7.654c-2.93,6.715 -5.86,13.434 -8.785,20.176c-6.364,-3.393 -12.312,-5.084 -17.355,-5.084l-0.439,0.005c-7.088,0.141 -11.018,3.792 -10.996,8.688c0.055,14.091 40.29,10.108 40.424,42.438c0.089,20.815 -16.408,35.734 -44.799,36.627c-0.966,0.027 -1.946,0.043 -2.923,0.043c-12.129,0 -24.505,-2.355 -32.007,-6.407c3.253,-7.774 6.503,-15.536 9.755,-23.288c6.896,3.505 13.813,5.169 19.198,5.169l0.925,-0.017c7.093,-0.255 11.417,-4.076 11.396,-8.791c-0.055,-14.489 -38.873,-8.853 -38.998,-41.159c-0.113,-21.735 17.955,-35.452 39.061,-36.01c1.048,-0.032 2.088,-0.044 3.093,-0.044m156.465,8.052c5.951,0 12.532,0.431 19.754,1.367c5.071,0.654 11.553,1.954 15.649,2.934c-2.12,8.117 -4.243,16.242 -6.358,24.371c-3.332,-2.414 -7.635,-3.975 -11.16,-4.429c-1.356,-0.17 -2.637,-0.238 -3.763,-0.238c-1.638,0 -2.898,0.149 -3.477,0.302c0.123,27.902 0.244,55.789 0.367,83.675c-12.419,-1.52 -24.855,-2.84 -37.317,-3.955c-0.135,-33.3 -0.29,-66.604 -0.432,-99.902c6.645,-2.599 15.567,-4.125 26.737,-4.125m70.748,10.738c6.243,0 12.714,0.538 18.96,1.755c27.024,5.27 44.411,20.53 44.561,50.301c0.086,20.514 0.179,41.036 0.26,61.545c-4.045,1.113 -9.251,1.708 -15.441,1.708c-7.969,0 -17.582,-0.987 -28.517,-3.11c-32.261,-6.189 -49.174,-19.741 -49.254,-42.745c-0.102,-21.262 17.44,-27.983 40.658,-27.983c5.661,0 11.663,0.399 17.823,1.079c-0.005,-1.306 -0.019,-2.621 -0.029,-3.933c-0.038,-8.029 -5.477,-12.693 -15.792,-14.642c-3.445,-0.65 -7.098,-0.941 -10.696,-0.941c-6.747,0 -13.36,1.009 -18.311,2.52c-2.633,-7.609 -5.27,-15.208 -7.916,-22.798c6.698,-1.713 14.982,-2.756 23.694,-2.756m26.399,92.501c1.08,0 2.032,-0.106 2.855,-0.362c-0.048,-10.909 -0.091,-21.814 -0.142,-32.723c-2.247,-0.22 -4.319,-0.335 -6.211,-0.335c-12.447,0 -17.837,4.683 -17.794,14.513c0.035,10.383 5.878,16.302 16.204,18.322c1.904,0.371 3.614,0.585 5.088,0.585m-98.905,9.273c0.627,0 1.27,0.035 1.922,0.101c8.484,0.961 15.408,7.969 15.445,15.343c0.025,6.779 -5.787,11.752 -13.317,11.752c-0.66,0 -1.335,-0.035 -2.011,-0.113c-8.478,-0.957 -15.43,-7.731 -15.459,-15.122c-0.027,-6.795 5.847,-11.961 13.42,-11.961m-312.096,21.655c22.885,0 31.989,13.382 32.05,29.841c0.104,20.448 -13.692,37.489 -44.628,42.839c-1.247,0.209 -1.883,0.311 -5.005,0.545c0.058,12.848 0.124,25.696 0.181,38.55c-10.048,1.804 -20.082,3.745 -30.087,5.812c-0.148,-34.409 -0.302,-68.824 -0.456,-103.227c9.172,-5.833 21.31,-10.739 35.367,-13.197c4.592,-0.793 8.775,-1.163 12.578,-1.163m-17.657,55.666c3.44,-0.279 3.909,-0.351 5.007,-0.544c11.087,-1.93 15.282,-9.637 15.235,-21.07c-0.039,-10.063 -3.101,-15.907 -11.172,-15.907c-1.107,0 -2.306,0.118 -3.605,0.34c-2.036,0.357 -4.062,1.027 -5.619,1.78c0.047,11.798 0.102,23.604 0.154,35.401m188.785,-47.941c27.967,0 39.866,11.766 39.928,29.804c0.086,18.826 0.182,37.642 0.26,56.473c-8.551,-0.201 -17.113,-0.297 -25.662,-0.297c-1.453,0 -2.903,0.005 -4.356,0.013c-0.075,-18.928 -0.153,-37.851 -0.233,-56.773c-0.041,-7.263 -3.132,-11.031 -10.66,-11.031l-0.299,0c-2.684,0.04 -5.045,0.391 -7.26,1.225c0.104,22.262 0.206,44.525 0.308,66.783c-10.011,0.193 -20.011,0.528 -30.003,0.981c-0.116,-26.606 -0.228,-53.2 -0.341,-79.806c10.543,-4.729 22.853,-7.181 37.233,-7.366l1.085,-0.006m82.28,1.652c-15.776,0 -28.852,9.486 -28.783,26.021c0.119,25.919 31.171,24.281 31.236,35.846c0,3.586 -3.105,6.251 -8.246,6.251l-0.863,-0.027c-4.429,-0.212 -10.272,-2.093 -16.13,-5.597c-2.6,5.959 -5.203,11.926 -7.814,17.901c6.501,4.12 17.553,7.096 27.962,7.691c1.23,0.07 2.442,0.107 3.619,0.107c20.478,0 32.235,-10.599 32.165,-26.37c-0.096,-25.86 -32.221,-25.425 -32.278,-36.74c-0.01,-3.673 2.743,-6.22 7.731,-6.22l1.078,0.033c4.074,0.292 8.964,2.037 14.181,5.273c2.332,-5.198 4.677,-10.38 7.012,-15.562c-8.044,-5.224 -16.7,-7.809 -28.391,-8.532c-0.828,-0.054 -1.648,-0.075 -2.479,-0.075m-167.957,2.495c22.429,-0.005 33.876,15.658 33.972,40.151c0.011,0.633 0.016,1.26 -0.154,4.233c-16.656,3.321 -33.294,7.005 -49.913,11.052c1.626,8.238 7.782,12.133 16.386,12.133c0.835,0 1.69,-0.038 2.575,-0.11c7.713,-0.657 16.379,-3.496 21.724,-6.345c2.242,6.072 4.479,12.143 6.714,18.236c-8.82,4.783 -20.942,7.825 -33.549,8.938c-1.919,0.169 -3.769,0.26 -5.55,0.26c-24.988,0 -37.631,-16.776 -37.728,-39.948c-0.115,-26.286 14.862,-45.978 40.848,-48.393c1.606,-0.142 3.168,-0.207 4.675,-0.207m-18.353,41.553c7.968,-2.077 15.943,-4.08 23.914,-5.996c-0.055,-11.495 -3.222,-18.207 -10.327,-18.207l-1.101,0.05c-8.177,0.772 -12.706,9.439 -12.656,21.333c0,0.791 0,1.26 0.17,2.82m232.152,-38.596c9.966,0.992 19.914,2.118 29.852,3.378c0.096,23.742 0.198,47.48 0.3,71.23c0.126,28.428 -14.902,43.261 -40.593,43.261c-0.746,0 -1.494,-0.017 -2.255,-0.038c-0.027,-6.635 -0.048,-13.264 -0.086,-19.898c9.442,-2.303 13.165,-9.747 13.106,-23.081c-0.102,-24.952 -0.217,-49.898 -0.324,-74.852m67.756,8.058c4.52,0 9.16,0.351 13.658,1.123c21.678,3.775 35.685,15.577 35.808,39.414c0.065,16.416 0.132,32.841 0.207,49.265c-3.705,1.129 -8.61,1.743 -14.535,1.743c-5.964,0 -12.95,-0.63 -20.794,-1.987c-25.908,-4.45 -39.446,-15.18 -39.526,-33.588c-0.083,-17.623 15.001,-22.936 34.623,-22.936c3.941,0 8.077,0.217 12.294,0.59c0,-1.043 0,-2.091 -0.005,-3.137c-0.025,-6.433 -4.413,-10.066 -12.68,-11.468c-2.469,-0.415 -5.05,-0.603 -7.627,-0.603c-5.749,0 -11.446,0.914 -15.662,2.249c-2.1,-6.061 -4.217,-12.111 -6.327,-18.156c5.774,-1.541 13.012,-2.509 20.566,-2.509m19.304,73.673c1.005,0 1.879,-0.107 2.616,-0.341c-0.043,-8.744 -0.078,-17.491 -0.129,-26.23c-1.423,-0.102 -2.78,-0.15 -4.034,-0.15c-10.669,0 -15.296,3.796 -15.248,11.926c0.027,8.316 4.753,12.993 12.993,14.414c1.421,0.249 2.692,0.381 3.802,0.381" style="fill:#fff;fill-rule:nonzero;"/><defs><radialGradient id="_Radial2" cx="0" cy="0" r="1" gradientUnits="userSpaceOnUse" gradientTransform="matrix(263.072,0,0,263.072,307.515,296.772)"><stop offset="0" style="stop-color:#ffe8ae;stop-opacity:1"/><stop offset="0.48" style="stop-color:#d2ce58;stop-opacity:1"/><stop offset="0.7" style="stop-color:#a5c715;stop-opacity:1"/><stop offset="1" style="stop-color:#60a937;stop-opacity:1"/></radialGradient></defs></svg>