<svg xmlns="http://www.w3.org/2000/svg" viewBox="0 0 157.6 101.08"><defs><style>.cls-1{fill:#a5c715;}.cls-2{fill:#62822c;}.cls-3{fill:#fff;}</style></defs><title>Ekstra-premia</title><g id="Layer_2" data-name="Layer 2"><g id="Layer_1-2" data-name="Layer 1"><path class="cls-1" d="M126.75,67.3A50.52,50.52,0,1,1,95.85,2.88a50.51,50.51,0,0,1,30.9,64.42"/><path class="cls-2" d="M156.62,60.39c-1.08-3.18-2.15-6.38-3.21-9.63-1.35-4.11-5.46-10.54-17.72-7.42a41.29,41.29,0,0,0-9.51,3.81L126,46.2l-.07,0a7.39,7.39,0,0,0-.2-1.54c-1.06-4.33-5.79-7-10.78-6.18a9.65,9.65,0,0,0-6.37,4,7.79,7.79,0,0,0-1.21,6.05,7.7,7.7,0,0,0,.52,1.58l-.09,0,.44,2a17.11,17.11,0,0,0-9.58-.73A22,22,0,0,0,91.25,54a21,21,0,0,0-7.81-.19,30.77,30.77,0,0,0-11.35,3.74l-2.51,1.41a16.06,16.06,0,0,0-10.41-2.4,16.89,16.89,0,0,0-7.11,2.17l.08-.66-4.81-.28a42.4,42.4,0,0,0-4.51,0,32.11,32.11,0,0,0-11,2.28c-2.77-5.84-8.59-9.27-16.54-9.44A27.57,27.57,0,0,0,2.62,53.05L0,54.37.13,57.3c.52,12,1.11,24.11,1.75,35.9l.24,4.53,4.52-.26c3.43-.19,6.89-.41,10.31-.68l4.47-.34L21.12,92l-.51-7.91a17,17,0,0,0,8.23-4c.31,3.66.63,7.33.95,11l.41,4.6,4.6-.51c3.37-.38,6.79-.8,10.16-1.25l4.35-.57-.45-4.37c-.09-.85-.17-1.72-.26-2.57a15.74,15.74,0,0,0,2.57,2.46,15.38,15.38,0,0,0,9.4,3A19.88,19.88,0,0,0,64,91.53a32.47,32.47,0,0,0,9.74-3.24l.14.91,4.63-.93c2.93-.59,5.89-1.21,8.82-1.85v0l5.17-1.16v0c2.74-.63,5.5-1.28,8.21-2v0l5.13-1.3h0c2.88-.75,5.8-1.53,8.69-2.32v0l2.54-.72,2-.56v0c3.28-.94,6.57-1.92,9.79-2.9l4.16-1.28-.42-1.61a13.25,13.25,0,0,0,2.41.22,27.44,27.44,0,0,0,8.8-1.73c4.88-1.67,8.92-3.75,11.37-5.83l2.34-2Z"/><path class="cls-3" d="M16.51,80.4a7.39,7.39,0,0,1-.89,0q.3,6.23.64,12.41c-3.43.25-6.85.45-10.28.61Q5.26,75.46,4.72,57.09a22.63,22.63,0,0,1,10.57-1.88c9.49.31,13.3,5.93,13.74,12.35C29.5,74.5,25.68,80,16.51,80.4m-.83-18.21a4.68,4.68,0,0,0-.91.1q.24,5.55.51,11.06a4.61,4.61,0,0,0,.88,0c2.44-.06,3.35-2,3.16-5.67s-1.15-5.5-3.64-5.53"/><path class="cls-3" d="M46.1,70.18a4.71,4.71,0,0,0-2.62-.64,7.61,7.61,0,0,0-1.14.18Q43.22,79.94,44.19,90q-5.05.66-10.13,1.22-1-12.84-1.93-25.92c2.27-1.42,5.92-2.35,11-2.61,1.26-.06,2.84-.05,4,0-.32,2.5-.65,5-1,7.49"/><path class="cls-3" d="M59.14,78.42c.76,1.85,2.81,2.31,5,2a16.26,16.26,0,0,0,6-2.32q1.5,3,3,5.84a25.41,25.41,0,0,1-10,3.76C54.58,89.21,49.66,83.48,49,76.07c-.8-8.2,3.1-13.95,10.63-14.55s11.79,4,12.86,11.46c.07.49.14,1,.17,1.48q-6.7,2-13.47,4m.69-10.88c-1.75.18-2.5,2.17-2.18,5.06,0,.33.09.71.17,1.08l5-1.52c-.38-3.06-1.3-4.8-3-4.62"/><path class="cls-3" d="M104.29,78.18q-1.52-7-3-14.2a2,2,0,0,0-2.68-1.77,3,3,0,0,0-1.24.49Q99,71,100.68,79.12,95.87,80.35,91,81.48c-.91-5-1.81-10-2.69-15a2.06,2.06,0,0,0-2.65-2,4.37,4.37,0,0,0-1.27.39q1.44,8.77,3,17.39c-3.23.73-6.48,1.42-9.72,2.08Q75.92,73.32,74.31,62a26.18,26.18,0,0,1,9.76-3.2,14.51,14.51,0,0,1,7.86.66,16.53,16.53,0,0,1,7.39-3.09c6.79-1.19,10.38,1.47,11.35,5.65q1.58,6.84,3.2,13.55-4.77,1.36-9.58,2.62"/><path class="cls-3" d="M117.21,50.9c-2.63.56-5.17-.7-5.64-2.79s1.26-4.14,3.86-4.6,5.11.78,5.62,2.76-1.2,4.06-3.84,4.63M118,74.37q-2.53-10-4.94-20.25c3.15-.66,6.29-1.36,9.41-2.08q2.56,9.84,5.26,19.35-4.84,1.53-9.73,3"/><path class="cls-3" d="M142.5,66.85c-7.66,2.74-12.12,2-13.31-2.28-1.37-4.85,4.36-7.81,10.79-10.24-.06-.18-.11-.36-.17-.54-.32-1-1.49-1.09-3.36-.56a22.47,22.47,0,0,0-6.1,2.93q-1.62-2-3.21-4a35.83,35.83,0,0,1,9.39-4c6-1.57,10.54-.87,12.37,4.22q1.71,4.77,3.45,9.42c-1.78,1.55-5.14,3.43-9.85,5.11m-1.45-9.25c-2.87,1.16-3.6,2.38-3.12,3.89s1.81,1.85,3.63,1.23a3.4,3.4,0,0,0,1-.45c-.52-1.55-1-3.1-1.54-4.67"/><path class="cls-2" d="M126.81,28.87q-1-3.33-2-6.74c-.76-2.57-3.6-8.32-13.22-6.31a29.93,29.93,0,0,0-4.62,1.43l-3.07.29c-.88.08-2.09.25-3,.43a31.23,31.23,0,0,0-5.67,1.56l0-.18L93,19.71,92,14.56,78,20l.4,2-1,.15a20.4,20.4,0,0,0-3.9.18,12.08,12.08,0,0,0-2.76.74l-4.68.56q-3.22.39-6.46.73c0-.22-.08-.45-.11-.68L58.94,20l-3.8.32q-3.26.27-6.51.5l-1.74.12-.44,0q-5.6.36-11.22.6L31,21.7,31.3,26c.61,7.49,1.29,15,2,22.3l.41,4.15L37.87,52c3.53-.4,7-.85,10.54-1.31v0l2.87-.41,2.51-.34v0l5.53-.82.6-.1h0l3.42-.54v0c2.32-.37,4.63-.77,6.94-1.18L73,46.79h0a19.86,19.86,0,0,0,3.65-.35h0c4.53-.88,6.86-3,8.06-4.66l.34.25a9.11,9.11,0,0,0,5,1.37A12.76,12.76,0,0,0,92.94,43a14.33,14.33,0,0,0,2.81-.95l2.63-.62q3.36-.8,6.69-1.62l4-1-.34-1.33a11.19,11.19,0,0,0,2.8.34,21.29,21.29,0,0,0,5.6-.87,25,25,0,0,0,8.23-3.64l2.27-1.74Z"/><path class="cls-3" d="M38,47.36q-1.09-11.14-2-22.59,5.59-.16,11.16-.46c.17,1.65.35,3.29.53,4.93-1.47.11-3,.21-4.43.3l.36,3.57c1.26-.09,2.51-.19,3.76-.3l.54,4.77L44.08,38c.13,1.23.27,2.46.4,3.69,1.52-.16,3-.33,4.54-.51.19,1.62.39,3.23.59,4.83q-5.79.78-11.63,1.4"/><path class="cls-3" d="M62.17,44.1Q60,40.65,58,37.06h-.06c.35,2.52.71,5,1.07,7.54q-3.35.51-6.72,1-1.56-10.51-3-21.37,3.24-.19,6.48-.43.95,6,2,11.84h0L60,28q3.39-.33,6.76-.72-1.58,3.91-3.21,7.9,3,3.95,6.16,7.63c-2.5.45-5,.88-7.52,1.29"/><path class="cls-3" d="M75.9,42a12.12,12.12,0,0,1-5.81-.14c.36-1.39.71-2.77,1.07-4.14a6.76,6.76,0,0,0,3.07.35c.8-.14,1.22-.53,1.14-1-.26-1.47-5.75-.32-6.51-5C68.3,28.61,71,26.43,74.14,26a12.54,12.54,0,0,1,5.87.4q-.45,1.76-.9,3.54a6.36,6.36,0,0,0-2.69-.33c-.79.12-1.21.5-1.12,1,.29,1.61,5.92.49,6.76,4.75.6,3-1.55,5.69-6.16,6.61"/><path class="cls-3" d="M91.85,38.6c-3.8.88-6-.6-6.64-3.67-.4-2-.8-3.94-1.2-5.93l-1.6.27-.75-3.93,1.59-.24c-.18-1-.37-1.9-.55-2.86l6.15-2.38.87,4.22,2.08-.35.81,3.74-2.09.39c.41,1.92.83,3.83,1.24,5.73a.89.89,0,0,0,1.2.69A3.06,3.06,0,0,0,94,33.83c.27,1.17.53,2.33.79,3.49a7.25,7.25,0,0,1-3,1.28"/><path class="cls-3" d="M103.8,25.2a3.94,3.94,0,0,0-1.77-.06,4.73,4.73,0,0,0-.74.2q1.21,5.07,2.46,10c-2.18.57-4.36,1.11-6.55,1.64q-1.5-6.36-2.94-12.9a20,20,0,0,1,7.1-2.41c.83-.15,1.88-.3,2.64-.38-.06,1.29-.13,2.59-.2,3.88"/><path class="cls-3" d="M115.58,32.46q-7.78,2.24-8.88-2.06c-.83-3.29,3.11-5.11,7.56-6.52,0-.12-.07-.24-.1-.37-.19-.68-1-.79-2.27-.5a14.92,14.92,0,0,0-4.23,1.78c-.7-.92-1.41-1.86-2.11-2.81a24.59,24.59,0,0,1,6.54-2.44c4.18-.88,7.27-.22,8.31,3.34.64,2.22,1.29,4.42,1.93,6.6a21.59,21.59,0,0,1-6.75,3m-.7-6.32c-2,.67-2.5,1.47-2.22,2.51s1.17,1.31,2.41,1a2,2,0,0,0,.7-.27c-.3-1.07-.59-2.14-.89-3.22"/></g></g></svg>